<svg width="21" height="20" viewBox="0 0 21 20" fill="none" xmlns="http://www.w3.org/2000/svg">
<path fill-rule="evenodd" clip-rule="evenodd" d="M18.2437 5.8025C18.2421 5.7425 18.2246 5.68583 18.2087 5.62833C18.1962 5.58 18.1904 5.53083 18.1696 5.48667C18.1504 5.44333 18.1179 5.40833 18.0896 5.36833C18.0546 5.3175 18.0229 5.26667 17.9779 5.225C17.9704 5.2175 17.9671 5.2075 17.9587 5.20083C17.9287 5.175 17.8921 5.16583 17.8596 5.145C17.8096 5.1125 17.7604 5.07917 17.7037 5.0575C17.6479 5.0375 17.5929 5.0325 17.5354 5.02417C17.4954 5.01833 17.4596 5 17.4171 5H13.2504C12.7896 5 12.4171 5.37333 12.4171 5.83333C12.4171 6.29333 12.7896 6.66667 13.2504 6.66667H15.6054L12.2421 10.59L8.67875 8.4525C8.32625 8.23917 7.87291 8.3175 7.60958 8.63333L3.44291 13.6333C3.14875 13.9867 3.19625 14.5125 3.54958 14.8067C3.70625 14.9367 3.89458 15 4.08291 15C4.32208 15 4.55875 14.8983 4.72375 14.7L8.43375 10.2483L11.9879 12.3817C12.3371 12.5908 12.7854 12.5175 13.0496 12.2092L16.5837 8.08583V10C16.5837 10.46 16.9562 10.8333 17.4171 10.8333C17.8779 10.8333 18.2504 10.46 18.2504 10V5.83333C18.2504 5.8225 18.2446 5.81333 18.2437 5.8025" fill="#03A66D"/>
</svg>
