<svg width="24" height="24" viewBox="0 0 24 24" fill="none" xmlns="http://www.w3.org/2000/svg">
<path d="M11.94 2.212L9.52995 7.822H7.11995C6.71995 7.822 6.32995 7.852 5.94995 7.932L6.94995 5.532L6.98995 5.442L7.04995 5.282C7.07995 5.212 7.09995 5.152 7.12995 5.102C8.28995 2.412 9.58995 1.572 11.94 2.212ZM18.731 8.09L18.711 8.08C18.111 7.91 17.501 7.82 16.881 7.82H10.621L12.871 2.59L12.901 2.52C13.041 2.57 13.191 2.64 13.341 2.69L15.551 3.62C16.781 4.13 17.641 4.66 18.171 5.3C18.261 5.42 18.341 5.53 18.421 5.66C18.511 5.8 18.581 5.94 18.621 6.09C18.661 6.18 18.691 6.26 18.711 6.35C18.861 6.86 18.871 7.44 18.731 8.09ZM12.52 17.658H12.77C13.07 17.658 13.32 17.388 13.32 17.058C13.32 16.638 13.2 16.578 12.94 16.478L12.52 16.328V17.658Z" fill="white" fill-opacity="0.8"/>
<path d="M18.288 9.52C17.838 9.39 17.368 9.32 16.878 9.32H7.11804C6.43804 9.32 5.79804 9.45 5.19804 9.71C4.32015 10.0877 3.57204 10.7141 3.04603 11.512C2.52003 12.3099 2.23914 13.2443 2.23804 14.2V16.15C2.23804 16.39 2.25804 16.62 2.28804 16.86C2.50804 20.04 4.20804 21.74 7.38804 21.95C7.61804 21.98 7.84804 22 8.09804 22H15.898C19.598 22 21.548 20.24 21.738 16.74C21.748 16.55 21.758 16.35 21.758 16.15V14.2C21.7566 13.1513 21.4187 12.1307 20.7941 11.2883C20.1695 10.4459 19.2911 9.82605 18.288 9.52ZM13.278 15.5C13.738 15.66 14.358 16 14.358 17.06C14.358 17.97 13.648 18.7 12.768 18.7H12.518V18.92C12.518 19.21 12.288 19.44 11.998 19.44C11.708 19.44 11.478 19.21 11.478 18.92V18.7H11.388C10.428 18.7 9.63804 17.89 9.63804 16.89C9.63804 16.6 9.86804 16.37 10.158 16.37C10.448 16.37 10.678 16.6 10.678 16.89C10.678 17.31 10.998 17.66 11.388 17.66H11.478V15.97L10.718 15.7C10.258 15.54 9.63804 15.2 9.63804 14.14C9.63804 13.23 10.348 12.5 11.228 12.5H11.478V12.28C11.478 11.99 11.708 11.76 11.998 11.76C12.288 11.76 12.518 11.99 12.518 12.28V12.5H12.608C13.568 12.5 14.358 13.31 14.358 14.31C14.358 14.6 14.128 14.83 13.838 14.83C13.548 14.83 13.318 14.6 13.318 14.31C13.318 13.89 12.998 13.54 12.608 13.54H12.518V15.23L13.278 15.5Z" fill="white" fill-opacity="0.8"/>
<path d="M10.6799 14.14C10.6799 14.56 10.7999 14.62 11.0599 14.72L11.4799 14.87V13.54H11.2299C10.9199 13.54 10.6799 13.81 10.6799 14.14Z" fill="white" fill-opacity="0.8"/>
</svg>
