<svg width="25" height="24" viewBox="0 0 25 24" fill="none" xmlns="http://www.w3.org/2000/svg">
<path d="M19.8399 14.49L18.8399 12.83C18.6299 12.46 18.4399 11.76 18.4399 11.35V8.81998C18.4387 7.70401 18.1216 6.61119 17.5252 5.66795C16.9288 4.72471 16.0776 3.9696 15.0699 3.48998C14.8128 3.03332 14.4376 2.65412 13.9838 2.39201C13.5299 2.1299 13.014 1.99451 12.4899 1.99998C11.3999 1.99998 10.4199 2.58998 9.89994 3.51998C7.94994 4.48998 6.59994 6.49998 6.59994 8.81998V11.35C6.59994 11.76 6.40994 12.46 6.19994 12.82L5.18994 14.49C4.78994 15.16 4.69994 15.9 4.94994 16.58C5.18994 17.25 5.75994 17.77 6.49994 18.02C8.43994 18.68 10.4799 19 12.5199 19C14.5599 19 16.5999 18.68 18.5399 18.03C19.2399 17.8 19.7799 17.27 20.0399 16.58C20.2999 15.89 20.2299 15.13 19.8399 14.49ZM15.3299 20.01C15.1196 20.5921 14.7352 21.0954 14.2289 21.4515C13.7226 21.8075 13.1189 21.999 12.4999 22C11.7099 22 10.9299 21.68 10.3799 21.11C10.0599 20.81 9.81994 20.41 9.67994 20C9.80994 20.02 9.93994 20.03 10.0799 20.05C10.3099 20.08 10.5499 20.11 10.7899 20.13C11.3599 20.18 11.9399 20.21 12.5199 20.21C13.0899 20.21 13.6599 20.18 14.2199 20.13C14.4299 20.11 14.6399 20.1 14.8399 20.07L15.3299 20.01Z" fill="white"/>
</svg>
