<svg width="24" height="24" viewBox="0 0 24 24" fill="none" xmlns="http://www.w3.org/2000/svg">
<path d="M20.098 6.94C20.098 7.48 19.808 7.97 19.348 8.22L17.608 9.16L16.128 9.95L13.058 11.61C12.728 11.79 12.368 11.88 11.998 11.88C11.628 11.88 11.268 11.79 10.938 11.61L4.64799 8.22C4.18799 7.97 3.89799 7.48 3.89799 6.94C3.89799 6.4 4.18799 5.91 4.64799 5.66L6.61799 4.6L8.18799 3.75L10.938 2.27C11.598 1.91 12.398 1.91 13.058 2.27L19.348 5.66C19.808 5.91 20.098 6.4 20.098 6.94ZM9.89899 12.79L4.04899 9.87C3.59899 9.64 3.07899 9.67 2.64899 9.93C2.21899 10.19 1.96899 10.65 1.96899 11.15V16.68C1.96899 17.64 2.49899 18.5 3.35899 18.93L9.20899 21.85C9.40899 21.95 9.62899 22 9.84899 22C10.109 22 10.369 21.93 10.599 21.78C11.029 21.52 11.279 21.06 11.279 20.56V15.03C11.289 14.08 10.759 13.22 9.89899 12.79ZM22.03 11.15V16.68C22.03 17.63 21.5 18.49 20.64 18.92L14.79 21.85C14.5702 21.9593 14.326 22.0103 14.0808 21.998C13.8357 21.9858 13.5978 21.9107 13.39 21.78C12.97 21.52 12.71 21.06 12.71 20.56V15.04C12.71 14.08 13.24 13.22 14.1 12.79L16.25 11.72L17.75 10.97L19.95 9.87C20.4 9.64 20.92 9.66 21.35 9.93C21.77 10.19 22.03 10.65 22.03 11.15Z" fill="white"/>
<path d="M17.6111 9.16L16.1311 9.95L6.62109 4.6L8.19109 3.75L17.3711 8.93C17.4711 8.99 17.5511 9.07 17.6111 9.16ZM17.7501 10.969V13.239C17.7501 13.649 17.4101 13.989 17.0001 13.989C16.5901 13.989 16.2501 13.649 16.2501 13.239V11.719L17.7501 10.969Z" fill="white"/>
</svg>
