<svg width="21" height="20" viewBox="0 0 21 20" fill="none" xmlns="http://www.w3.org/2000/svg">
<path fill-rule="evenodd" clip-rule="evenodd" d="M17.7437 5.8025C17.7421 5.7425 17.7246 5.68583 17.7087 5.62833C17.6962 5.58 17.6904 5.53083 17.6696 5.48667C17.6504 5.44333 17.6179 5.40833 17.5896 5.36833C17.5546 5.3175 17.5229 5.26667 17.4779 5.225C17.4704 5.2175 17.4671 5.2075 17.4587 5.20083C17.4287 5.175 17.3921 5.16583 17.3596 5.145C17.3096 5.1125 17.2604 5.07917 17.2037 5.0575C17.1479 5.0375 17.0929 5.0325 17.0354 5.02417C16.9954 5.01833 16.9596 5 16.9171 5H12.7504C12.2896 5 11.9171 5.37333 11.9171 5.83333C11.9171 6.29333 12.2896 6.66667 12.7504 6.66667H15.1054L11.7421 10.59L8.17875 8.4525C7.82625 8.23917 7.37291 8.3175 7.10958 8.63333L2.94291 13.6333C2.64875 13.9867 2.69625 14.5125 3.04958 14.8067C3.20625 14.9367 3.39458 15 3.58291 15C3.82208 15 4.05875 14.8983 4.22375 14.7L7.93375 10.2483L11.4879 12.3817C11.8371 12.5908 12.2854 12.5175 12.5496 12.2092L16.0837 8.08583V10C16.0837 10.46 16.4562 10.8333 16.9171 10.8333C17.3779 10.8333 17.7504 10.46 17.7504 10V5.83333C17.7504 5.8225 17.7446 5.81333 17.7437 5.8025" fill="#03A66D"/>
</svg>
