<svg width="19" height="20" viewBox="0 0 19 20" fill="none" xmlns="http://www.w3.org/2000/svg">
<g opacity="0.8">
<path d="M18.4722 0H4.75C4.45857 0 4.22216 0.248802 4.22216 0.555625V17.2223C4.22024 17.8252 4.03016 18.4108 3.68115 18.889H16.3612C17.8179 18.8873 18.9984 17.6447 19 16.111V0.555625C19 0.248854 18.7636 0 18.4722 0ZM15.3055 14.4444H7.91667C7.62523 14.4444 7.38882 14.1958 7.38882 13.889C7.38882 13.5821 7.62519 13.3333 7.91667 13.3333H15.3055C15.5969 13.3333 15.8333 13.5821 15.8333 13.889C15.8333 14.1958 15.597 14.4444 15.3055 14.4444ZM15.3055 11.111H7.91667C7.62523 11.111 7.38882 10.8624 7.38882 10.5556C7.38882 10.2488 7.62519 10 7.91667 10H15.3055C15.5969 10 15.8333 10.2488 15.8333 10.5556C15.8333 10.8624 15.597 11.111 15.3055 11.111ZM15.3055 7.77771H7.91667C7.62523 7.77771 7.38882 7.52911 7.38882 7.22229C7.38882 6.91547 7.62519 6.66667 7.91667 6.66667H15.3055C15.5969 6.66667 15.8333 6.91547 15.8333 7.22229C15.8333 7.52911 15.597 7.77771 15.3055 7.77771ZM15.3055 4.44437H7.91667C7.62523 4.44437 7.38882 4.19578 7.38882 3.88896C7.38882 3.58214 7.62519 3.33333 7.91667 3.33333H15.3055C15.5969 3.33333 15.8333 3.58214 15.8333 3.88896C15.8333 4.19578 15.597 4.44437 15.3055 4.44437ZM2.63882 2.22229H0.527844C0.236411 2.22229 0 2.47089 0 2.77771V17.2223C0 18.1427 0.708937 18.889 1.58333 18.889C2.45773 18.889 3.16667 18.1427 3.16667 17.2223V2.77771C3.16667 2.47094 2.9303 2.22229 2.63882 2.22229Z" fill="white"/>
</g>
</svg>
