<svg width="24" height="24" viewBox="0 0 24 24" fill="none" xmlns="http://www.w3.org/2000/svg">
<path d="M10.9454 22.9818V23.2727C10.9454 23.4546 10.7999 23.6364 10.5817 23.6364H2.79992C2.6181 23.6364 2.43628 23.4909 2.43628 23.2727V22.9455C2.43628 21.8909 3.27264 21.0182 4.29083 21.0182H9.09083C10.1454 21.0546 10.9454 21.9273 10.9454 22.9818ZM7.92719 4.5091V20.3636H5.49083V4.5091C5.49083 3.96365 5.85446 3.49092 6.36355 3.34547V2.76365C5.85446 2.61819 5.49083 2.14547 5.49083 1.60001C5.49083 0.909102 6.03628 0.363647 6.72719 0.363647C7.38173 0.363647 7.92719 0.909102 7.92719 1.60001C7.92719 2.14547 7.56355 2.61819 7.05446 2.76365V3.34547C7.56355 3.49092 7.92719 3.96365 7.92719 4.5091ZM21.4545 8.5091L17.1999 4.25456C17.1272 4.18183 17.0545 4.14547 16.9454 4.14547H8.58174C8.6181 4.25456 8.6181 4.36365 8.6181 4.5091V13.3818H16.9454C17.0545 13.3818 17.1272 13.3455 17.1999 13.2727L21.4545 9.01819C21.5999 8.87274 21.5999 8.65456 21.4545 8.5091ZM10.9817 10.3636H10.4363V7.23637H10.9817V10.3636ZM13.309 9.45456H12.7636V10.3636H12.2181V7.23637H13.309C14.1454 7.23637 14.6908 7.52728 14.6908 8.36365C14.6908 9.16365 14.1454 9.45456 13.309 9.45456ZM16.7272 10.4C15.7817 10.4 15.0908 9.7091 15.0908 8.76365C15.0908 7.81819 15.8181 7.12728 16.7272 7.12728C17.6726 7.12728 18.3636 7.81819 18.3636 8.76365C18.3636 9.7091 17.6363 10.4 16.7272 10.4Z" fill="white"/>
<path d="M16.7273 7.63638C16.1091 7.63638 15.6364 8.14547 15.6364 8.76365C15.6364 9.38183 16.1091 9.89092 16.7273 9.89092C17.3819 9.89092 17.8182 9.38183 17.8182 8.76365C17.8182 8.14547 17.3455 7.63638 16.7273 7.63638ZM13.3091 7.7091H12.7637V8.98183H13.3819C13.8909 8.98183 14.1455 8.83638 14.1455 8.32728C14.1455 7.81819 13.7819 7.7091 13.3091 7.7091Z" fill="white"/>
</svg>
