<svg width="24" height="24" viewBox="0 0 24 24" fill="none" xmlns="http://www.w3.org/2000/svg">
<g opacity="0.8">
<path d="M21.1875 3.68766H21.1537V1.875C21.1537 1.55156 20.8912 1.28906 20.5678 1.28906C20.2444 1.28906 19.9819 1.55156 19.9819 1.875V3.68766H19.9481C19.1081 3.68766 18.4247 4.37109 18.4247 5.21109V16.9969C18.4247 17.8369 19.1081 18.5203 19.9481 18.5203H19.9819V20.333C19.9819 20.6564 20.2444 20.9189 20.5678 20.9189C20.8912 20.9189 21.1537 20.6564 21.1537 20.333V18.5203H21.1875C22.0275 18.5203 22.7109 17.8369 22.7109 16.9969V5.21109C22.7109 4.37109 22.0275 3.68766 21.1875 3.68766ZM15.4758 9.37031H15.442V8.47172C15.442 8.14828 15.1795 7.88578 14.8561 7.88578C14.5327 7.88578 14.2702 8.14828 14.2702 8.47172V9.37031H14.2364C13.3964 9.37031 12.713 10.0537 12.713 10.8937V19.7025C12.713 20.5425 13.3964 21.2259 14.2364 21.2259H14.2702V22.1245C14.2702 22.448 14.5327 22.7105 14.8561 22.7105C15.1795 22.7105 15.442 22.448 15.442 22.1245V21.2259H15.4758C16.3158 21.2259 16.9992 20.5425 16.9992 19.7025V10.8937C16.9992 10.0537 16.3158 9.37031 15.4758 9.37031ZM9.76406 7.43953H9.73031V6.22406C9.73031 5.90062 9.46781 5.63812 9.14438 5.63812C8.82094 5.63812 8.55844 5.90062 8.55844 6.22406V7.43953H8.52469C7.68469 7.43953 7.00125 8.12297 7.00125 8.96297V14.3606C7.00125 15.2006 7.68469 15.8841 8.52469 15.8841H8.55844V17.0995C8.55844 17.423 8.82094 17.6855 9.14438 17.6855C9.46781 17.6855 9.73031 17.423 9.73031 17.0995V15.8841H9.76406C10.6041 15.8841 11.2875 15.2006 11.2875 14.3606V8.96297C11.2875 8.12297 10.6041 7.43953 9.76406 7.43953ZM4.05188 3.96281H4.01813V1.875C4.01813 1.55156 3.75563 1.28906 3.43219 1.28906C3.10875 1.28906 2.84625 1.55156 2.84625 1.875V3.96281H2.8125C1.9725 3.96281 1.28906 4.64625 1.28906 5.48625V16.3669C1.28906 17.2069 1.9725 17.8903 2.8125 17.8903H2.84625V19.9781C2.84625 20.3016 3.10875 20.5641 3.43219 20.5641C3.75563 20.5641 4.01813 20.3016 4.01813 19.9781V17.8903H4.05188C4.89188 17.8903 5.57531 17.2069 5.57531 16.3669V5.48625C5.57531 4.64625 4.89188 3.96281 4.05188 3.96281Z" fill="white"/>
</g>
</svg>
