<svg width="23" height="24" viewBox="0 0 23 24" fill="none" xmlns="http://www.w3.org/2000/svg">
<g opacity="0.8">
<path d="M16.2847 8.72134C16.2786 9.776 16.0702 10.7835 15.6965 11.7071C16.4565 11.8901 17.1395 12.3078 17.6488 12.9009C17.8914 13.1831 17.8593 13.6085 17.5771 13.8512C17.2949 14.0937 16.8696 14.0617 16.6269 13.7794C16.228 13.3148 15.665 13.0222 15.0555 12.9629C14.6653 13.5867 14.1926 14.1548 13.6503 14.6521H15.1679C15.54 14.6521 15.8417 14.9538 15.8417 15.3259C15.8417 15.698 15.54 15.9997 15.1679 15.9997H12.5493C12.8405 16.9818 13.7506 17.7005 14.826 17.7005C15.518 17.7005 16.1745 17.3986 16.6269 16.8723C16.8695 16.5901 17.295 16.558 17.5771 16.8006C17.8593 17.0432 17.8914 17.4686 17.6489 17.7508C16.9401 18.5752 15.9112 19.048 14.826 19.048C13.0732 19.048 11.6005 17.83 11.2075 16.1962C10.2838 16.5701 9.27618 16.7785 8.22144 16.7846C8.89027 19.8151 11.5973 22.0893 14.826 22.0893C18.5554 22.0893 21.5894 19.0552 21.5894 15.3259C21.5894 12.0973 19.3152 9.39022 16.2847 8.72134Z" fill="white"/>
<path d="M14.9376 8.67414C14.9376 4.94474 11.9035 1.91071 8.17416 1.91071C4.44481 1.91071 1.41069 4.94478 1.41069 8.67414C1.41069 12.4035 4.44476 15.4376 8.17412 15.4376C11.9035 15.4376 14.9376 12.4035 14.9376 8.67414ZM7.5003 12.1883V12.0545H6.82087C6.44874 12.0545 6.14705 11.7528 6.14705 11.3807C6.14705 11.0086 6.44874 10.7069 6.82087 10.7069H8.17412C8.54876 10.7069 8.85355 10.4021 8.85355 10.0274C8.85355 9.65279 8.54876 9.348 8.17412 9.348C7.05639 9.348 6.14705 8.43866 6.14705 7.32093C6.14705 6.4394 6.71288 5.68787 7.5003 5.40945V5.16004C7.5003 4.78792 7.80199 4.48623 8.17412 4.48623C8.54624 4.48623 8.84793 4.78792 8.84793 5.16004V5.29386H9.52737C9.89949 5.29386 10.2012 5.59555 10.2012 5.96768C10.2012 6.33981 9.89949 6.6415 9.52737 6.6415H8.17412C7.79947 6.6415 7.49468 6.94629 7.49468 7.32093C7.49468 7.69557 7.79947 8.00036 8.17412 8.00036C9.29185 8.00036 10.2012 8.9097 10.2012 10.0274C10.2012 10.909 9.63536 11.6605 8.84793 11.9389V12.1884C8.84793 12.5605 8.54624 12.8622 8.17412 12.8622C7.80199 12.8622 7.5003 12.5604 7.5003 12.1883ZM8.58398 21.6307C6.15612 20.8963 3.95099 19.0627 2.61903 16.7258L3.05831 16.8735C3.41108 16.9923 3.79313 16.8024 3.91182 16.4497C4.03045 16.097 3.84071 15.7149 3.48798 15.5962L1.54303 14.942C1.19027 14.8235 0.808211 15.0132 0.68953 15.3659L0.0353426 17.3108C-0.0832943 17.6636 0.106453 18.0456 0.459174 18.1643C0.530419 18.1883 0.602832 18.1996 0.674077 18.1996C0.955463 18.1996 1.21798 18.0219 1.31263 17.7404L1.43657 17.372C2.06241 18.4746 2.86902 19.4937 3.8102 20.3643C5.10286 21.5602 6.61868 22.4441 8.19375 22.9206C8.25879 22.9402 8.32447 22.9496 8.38911 22.9496C8.67836 22.9496 8.94577 22.7618 9.03382 22.4707C9.14158 22.1146 8.94016 21.7385 8.58398 21.6307ZM22.5408 5.83575C22.1882 5.7172 21.806 5.9069 21.6873 6.25962L21.5633 6.62847C20.934 5.51977 20.1221 4.4953 19.1747 3.62172C17.8855 2.4331 16.3749 1.55404 14.8062 1.07945C14.45 0.971593 14.0739 1.17311 13.9662 1.52929C13.8584 1.88551 14.0598 2.26164 14.416 2.36936C16.8413 3.10306 19.0481 4.93777 20.3803 7.27408L19.9417 7.12656C19.589 7.00783 19.2069 7.19767 19.0882 7.55039C18.9695 7.90311 19.1593 8.28521 19.512 8.40385L21.457 9.05808C21.5282 9.08202 21.6007 9.09339 21.6719 9.09339C21.9533 9.09339 22.2158 8.91568 22.3105 8.6342L22.9646 6.68925C23.0833 6.33648 22.8935 5.95438 22.5408 5.83575Z" fill="white"/>
</g>
</svg>
