<svg width="25" height="20" viewBox="0 0 25 20" fill="none" xmlns="http://www.w3.org/2000/svg">
<path d="M22.6562 3.75H13.2812L10.1562 0.625H2.34375C1.04932 0.625 0 1.67432 0 2.96875V17.0312C0 18.3257 1.04932 19.375 2.34375 19.375H22.6562C23.9507 19.375 25 18.3257 25 17.0312V6.09375C25 4.79932 23.9507 3.75 22.6562 3.75ZM17.9688 11.9531C17.9688 12.3848 17.6191 12.7344 17.1875 12.7344H7.8125C7.38086 12.7344 7.03125 12.3848 7.03125 11.9531V11.1719C7.03125 10.7402 7.38086 10.3906 7.8125 10.3906H17.1875C17.6191 10.3906 17.9688 10.7402 17.9688 11.1719V11.9531Z" fill="#D1BFBF" fill-opacity="0.94"/>
</svg>
