<svg width="20" height="20" viewBox="0 0 20 20" fill="none" xmlns="http://www.w3.org/2000/svg">
<path d="M19.99 10C19.99 15.5201 15.5151 19.995 9.995 19.995C4.4749 19.995 0 15.5201 0 10C0 4.4799 4.4749 0.00500107 9.995 0.00500107C15.5151 0.00500107 19.99 4.4799 19.99 10ZM14.2811 8.57612C14.4801 7.24618 13.4674 6.53121 12.0826 6.05427L12.5318 4.25267L11.4351 3.97938L10.9978 5.73351C10.7094 5.66165 10.4133 5.5939 10.1191 5.52675L10.5595 3.76111L9.46337 3.48782L9.01388 5.28877C8.77521 5.2344 8.54093 5.18068 8.31354 5.12417L8.31479 5.11853L6.80224 4.7409L6.51049 5.91217C6.51049 5.91217 7.32424 6.09865 7.30707 6.11017C7.75128 6.22104 7.83157 6.51497 7.8181 6.74796L7.30643 8.80036C7.33705 8.80818 7.37671 8.81942 7.42044 8.83691C7.38389 8.82785 7.34483 8.81785 7.30453 8.80818L6.58731 11.6833C6.53294 11.8182 6.39519 12.0206 6.0847 11.9438C6.09562 11.9597 5.28752 11.7448 5.28752 11.7448L4.74303 13.0001L6.1703 13.3559C6.43581 13.4224 6.69605 13.492 6.95217 13.5576L6.49828 15.3798L7.59378 15.6531L8.04327 13.8503C8.3338 13.929 8.62516 14.0046 8.91731 14.077L8.46935 15.8714L9.5661 16.1447L10.02 14.3259C11.8902 14.6798 13.2965 14.5371 13.8885 12.8458C14.3655 11.4839 13.8647 10.6984 12.8807 10.1862C13.5973 10.021 14.1371 9.5497 14.2811 8.57612ZM11.7752 12.0896C11.4363 13.4515 9.14317 12.7153 8.39971 12.5307L9.00199 10.1166C9.74541 10.3021 12.1295 10.6694 11.7752 12.0896ZM12.1145 8.55645C11.8052 9.79518 9.89658 9.16582 9.27746 9.01154L9.82347 6.82203C10.4426 6.97631 12.4365 7.26427 12.1145 8.55645Z" fill="#AEB3C1"/>
</svg>
