<svg width="647" height="186" viewBox="0 0 647 186" fill="none" xmlns="http://www.w3.org/2000/svg">
<path d="M0.826172 77.9915C37.2239 77.9915 35.7281 41.0952 63.6497 41.0952C91.5713 41.0952 103.538 184.692 126.972 184.692C150.406 184.692 162.372 118.877 182.316 118.877C202.26 118.877 201.762 67.5209 233.672 67.5209C265.582 67.5209 271.566 77.9915 297.493 77.9915C323.42 77.9915 323.42 113.392 348.849 113.392C374.277 113.392 371.286 159.762 404.193 159.762C437.101 159.762 440.591 113.392 459.538 113.392C478.484 113.392 483.47 1.20721 517.874 1.20721C552.277 1.20721 542.305 170.232 577.706 170.232C613.106 170.232 601.14 77.9915 646.512 77.9915" stroke="#528CFB" stroke-width="1.9944"/>
</svg>
